<svg xmlns="http://www.w3.org/2000/svg" xmlns:xlink="http://www.w3.org/1999/xlink" width="1280" height="800" viewBox="0 0 1280 800"><defs><style>.a{clip-path:url(#b);}.b,.c,.e,.g,.k{fill:#707070;}.b,.c{font-size:48px;}.b{font-family:Wingdings3, "Wingdings 3";}.c,.g{font-family:Tahoma-Bold, Tahoma;font-weight:700;}.d,.h,.l{fill:#fff;}.d,.f{stroke:#707070;}.e{font-size:22px;font-family:Tahoma;}.f,.j{fill:none;}.g{font-size:30px;}.i,.k{stroke:none;}</style><clipPath id="b"><rect width="1280" height="800"/></clipPath></defs><g id="a" class="a"><rect class="l" width="1280" height="800"/><text class="b" transform="translate(326 103)"><tspan x="0" y="0">f</tspan></text><text class="c" transform="translate(788 106)"><tspan x="-217.477" y="0">Panel zarządzania</tspan><tspan x="-183.961" y="58">użytkownikami</tspan></text><g class="d" transform="translate(544 195)"><rect class="i" width="469" height="380" rx="52"/><rect class="j" x="0.5" y="0.5" width="468" height="379" rx="51.5"/></g><g transform="translate(612 221)"><g class="d"><rect class="i" width="342" height="59"/><rect class="j" x="0.5" y="0.5" width="341" height="58"/></g><text class="e" transform="translate(26 38)"><tspan x="0" y="0">AdamNowak</tspan></text></g><g transform="translate(721 627.852)"><g class="d" transform="translate(-12 -132.852)"><rect class="i" width="250" height="55" rx="27.5"/><rect class="j" x="0.5" y="0.5" width="249" height="54" rx="27"/></g><text class="e" transform="translate(83 -96.852)"><tspan x="0" y="0">Zmień</tspan></text></g><g class="d" transform="translate(612 299)"><rect class="i" width="28" height="28"/><rect class="j" x="0.5" y="0.5" width="27" height="27"/></g><text class="e" transform="translate(676 322)"><tspan x="0" y="0">Uprawnienia administratora</tspan></text><g class="d"><rect class="i" width="260" height="800"/><rect class="j" x="0.5" y="0.5" width="259" height="799"/></g><line class="f" x2="260" y2="800" transform="translate(0.5 0.5)"/><line class="f" y1="800" x2="260" transform="translate(0.5 0.5)"/><text class="g" transform="translate(87.286 312.315) rotate(71)"><tspan x="0" y="0">LEWY PANEL</tspan></text><g class="d" transform="translate(612 347)"><rect class="i" width="28" height="28"/><rect class="j" x="0.5" y="0.5" width="27" height="27"/></g><text class="e" transform="translate(676 368)"><tspan x="0" y="0">Zablokuj konto</tspan></text><g class="h" transform="translate(943 262) rotate(180)"><path class="i" d="M 24.14083862304688 21.5 L 0.8591617941856384 21.5 L 12.5 1.01212477684021 L 24.14083862304688 21.5 Z"/><path class="k" d="M 12.5 2.024259567260742 L 1.718328475952148 21 L 23.28167152404785 21 L 12.5 2.024259567260742 M 12.5 0 L 25 22 L 0 22 L 12.5 0 Z"/></g><g transform="translate(617 417)"><g class="d"><rect class="i" width="342" height="59"/><rect class="j" x="0.5" y="0.5" width="341" height="58"/></g><text class="e" transform="translate(26 38)"><tspan x="0" y="0">Potwierdź operację hasłem</tspan></text></g></g></svg>