<svg xmlns="http://www.w3.org/2000/svg" xmlns:xlink="http://www.w3.org/1999/xlink" width="1280" height="800" viewBox="0 0 1280 800"><defs><style>.a{clip-path:url(#b);}.b,.c,.e,.g{fill:#707070;}.b,.c{font-size:48px;}.b{font-family:Wingdings3, "Wingdings 3";}.c,.g{font-family:Tahoma-Bold, Tahoma;font-weight:700;}.d,.j{fill:#fff;}.d,.f{stroke:#707070;}.e{font-size:22px;font-family:Tahoma;}.f,.i{fill:none;}.g{font-size:30px;}.h{stroke:none;}</style><clipPath id="b"><rect width="1280" height="800"/></clipPath></defs><g id="a" class="a"><rect class="j" width="1280" height="800"/><text class="b" transform="translate(292 120)"><tspan x="0" y="0">f</tspan></text><text class="c" transform="translate(571 120)"><tspan x="0" y="0">Podaj nowe hasło</tspan></text><g class="d" transform="translate(550 156)"><rect class="h" width="469" height="448" rx="52"/><rect class="i" x="0.5" y="0.5" width="468" height="447" rx="51.5"/></g><g transform="translate(621 182)"><g class="d"><rect class="h" width="342" height="59"/><rect class="i" x="0.5" y="0.5" width="341" height="58"/></g><text class="e" transform="translate(26 38)"><tspan x="0" y="0">Login</tspan></text></g><g transform="translate(621 256.128)"><g class="d" transform="translate(0 -0.128)"><rect class="h" width="342" height="59"/><rect class="i" x="0.5" y="0.5" width="341" height="58"/></g><text class="e" transform="translate(26 37.872)"><tspan x="0" y="0">Hasło</tspan></text><g transform="translate(0 74)"><g class="d" transform="translate(0 -0.128)"><rect class="h" width="342" height="59"/><rect class="i" x="0.5" y="0.5" width="341" height="58"/></g><text class="e" transform="translate(26 37.872)"><tspan x="0" y="0">Powtórz hasło</tspan></text></g></g><g transform="translate(713 597.852)"><g class="d" transform="translate(0 -77.852)"><rect class="h" width="250" height="55" rx="27.5"/><rect class="i" x="0.5" y="0.5" width="249" height="54" rx="27"/></g><text class="e" transform="translate(66 -41.852)"><tspan x="0" y="0">Zmień hasło</tspan></text></g><g class="d"><rect class="h" width="260" height="800"/><rect class="i" x="0.5" y="0.5" width="259" height="799"/></g><line class="f" x2="260" y2="800" transform="translate(0.5 0.5)"/><line class="f" y1="800" x2="260" transform="translate(0.5 0.5)"/><text class="g" transform="translate(87.286 312.315) rotate(71)"><tspan x="0" y="0">LEWY PANEL</tspan></text><g transform="translate(621 438)"><g class="d"><rect class="h" width="342" height="59"/><rect class="i" x="0.5" y="0.5" width="341" height="58"/></g><text class="e" transform="translate(26 38)"><tspan x="0" y="0">Kod otrzymany e-mailem</tspan></text></g><line class="f" x2="124" transform="translate(730.5 415.5)"/></g></svg>