<svg xmlns="http://www.w3.org/2000/svg" xmlns:xlink="http://www.w3.org/1999/xlink" width="1280" height="800" viewBox="0 0 1280 800"><defs><style>.a{clip-path:url(#b);}.b,.c,.d,.f,.g,.j{fill:#707070;}.b,.g{font-size:20px;}.b,.f,.g{font-family:Tahoma;}.b,.h{text-decoration:underline;}.c,.d{font-size:48px;}.c{font-family:Wingdings3, "Wingdings 3";}.d,.j{font-family:Tahoma-Bold, Tahoma;font-weight:700;}.e,.m{fill:#fff;}.e,.i{stroke:#707070;}.f{font-size:22px;}.i,.l{fill:none;}.j{font-size:30px;}.k{stroke:none;}</style><clipPath id="b"><rect width="1280" height="800"/></clipPath></defs><g id="a" class="a"><rect class="m" width="1280" height="800"/><text class="b" transform="translate(964 775)"><tspan x="0" y="0">Regulamin i polityka prywatności</tspan></text><text class="c" transform="translate(326 103)"><tspan x="0" y="0">f</tspan></text><text class="d" transform="translate(626 106)"><tspan x="0" y="0">Zaloguj się</tspan></text><g class="e" transform="translate(552 147)"><rect class="k" width="412" height="309" rx="26"/><rect class="l" x="0.5" y="0.5" width="411" height="308" rx="25.5"/></g><g transform="translate(593 173)"><g class="e"><rect class="k" width="342" height="59"/><rect class="l" x="0.5" y="0.5" width="341" height="58"/></g><text class="f" transform="translate(26 38)"><tspan x="0" y="0">Login</tspan></text></g><g transform="translate(589 395.194)"><g class="e" transform="translate(4 -143.194)"><rect class="k" width="342" height="59"/><rect class="l" x="0.5" y="0.5" width="341" height="58"/></g><text class="f" transform="translate(34 -105.194)"><tspan x="0" y="0">Hasło</tspan></text></g><g transform="translate(685 372.852)"><g class="e" transform="translate(0 0.148)"><rect class="k" width="250" height="55" rx="27.5"/><rect class="l" x="0.5" y="0.5" width="249" height="54" rx="27"/></g><text class="f" transform="translate(72 36.148)"><tspan x="0" y="0">Zaloguj się</tspan></text></g><text class="b" transform="translate(750 341)"><tspan x="0" y="0">Nie pamiętasz hasła?</tspan></text><text class="g" transform="translate(594 494)"><tspan x="0" y="0">Nie masz jeszcze konta? </tspan><tspan class="h" y="0">Zarejestruj się</tspan></text><g class="e"><rect class="k" width="260" height="800"/><rect class="l" x="0.5" y="0.5" width="259" height="799"/></g><line class="i" x2="260" y2="800" transform="translate(0.5 0.5)"/><line class="i" y1="800" x2="260" transform="translate(0.5 0.5)"/><text class="j" transform="translate(87.286 312.315) rotate(71)"><tspan x="0" y="0">LEWY PANEL</tspan></text></g></svg>