<svg xmlns="http://www.w3.org/2000/svg" xmlns:xlink="http://www.w3.org/1999/xlink" width="1280" height="800" viewBox="0 0 1280 800"><defs><style>.a{clip-path:url(#b);}.b,.e,.f,.g,.h{fill:#707070;}.b{font-size:48px;font-family:Wingdings3, "Wingdings 3";}.c,.k{fill:#fff;}.c,.d{stroke:#707070;}.d,.j{fill:none;}.e{font-size:30px;font-family:Tahoma-Bold, Tahoma;font-weight:700;}.f{font-size:22px;}.f,.g,.h{font-family:Tahoma;}.g,.h{font-size:24px;}.g{text-decoration:underline;}.i{stroke:none;}</style><clipPath id="b"><rect width="1280" height="800"/></clipPath></defs><g id="a" class="a"><rect class="k" width="1280" height="800"/><text class="b" transform="translate(276 51)"><tspan x="0" y="0">f</tspan></text><g class="c"><rect class="i" width="260" height="800"/><rect class="j" x="0.5" y="0.5" width="259" height="799"/></g><line class="d" x2="260" y2="800" transform="translate(0.5 0.5)"/><line class="d" y1="800" x2="260" transform="translate(0.5 0.5)"/><text class="e" transform="translate(87.286 312.315) rotate(71)"><tspan x="0" y="0">LEWY PANEL</tspan></text><text class="f" transform="translate(348 129)"><tspan x="0" y="0">Wyniki wyszukiwania: Adam</tspan></text><line class="d" x2="867" transform="translate(348.5 86.5)"/><g class="c" transform="translate(348 14)"><rect class="i" width="434" height="47"/><rect class="j" x="0.5" y="0.5" width="433" height="46"/></g><text class="f" transform="translate(371 46)"><tspan x="0" y="0">Wyszukiwarka</tspan></text><g class="c" transform="translate(805 14)"><rect class="i" width="165" height="47" rx="23.5"/><rect class="j" x="0.5" y="0.5" width="164" height="46" rx="23"/></g><text class="f" transform="translate(856 46)"><tspan x="0" y="0">Szukaj</tspan></text><g class="c" transform="translate(348 158)"><rect class="i" width="868" height="57"/><rect class="j" x="0.5" y="0.5" width="867" height="56"/></g><text class="g" transform="translate(371 196)"><tspan x="0" y="0">Adam Nowak</tspan></text><text class="h" transform="translate(710 196)"><tspan x="0" y="0">Wykonawca</tspan></text><g transform="translate(0 68)"><g class="c" transform="translate(348 158)"><rect class="i" width="868" height="57"/><rect class="j" x="0.5" y="0.5" width="867" height="56"/></g><text class="g" transform="translate(371 196)"><tspan x="0" y="0">Adam Kowalski</tspan></text><text class="h" transform="translate(710 196)"><tspan x="0" y="0">Wykonawca</tspan></text></g><g transform="translate(1 136)"><g class="c" transform="translate(348 158)"><rect class="i" width="868" height="57"/><rect class="j" x="0.5" y="0.5" width="867" height="56"/></g><text class="g" transform="translate(371 196)"><tspan x="0" y="0">Ewa Adamska</tspan></text><text class="h" transform="translate(710 196)"><tspan x="0" y="0">Wykonawca</tspan></text></g><g transform="translate(1 204)"><g class="c" transform="translate(348 158)"><rect class="i" width="868" height="57"/><rect class="j" x="0.5" y="0.5" width="867" height="56"/></g><text class="g" transform="translate(371 196)"><tspan x="0" y="0">Adam i Ewa</tspan></text><text class="h" transform="translate(710 196)"><tspan x="0" y="0">Album muzyczny</tspan></text><text class="g" transform="translate(1049 196)"><tspan x="0" y="0">Ewa Adamska</tspan></text></g><g transform="translate(1 272)"><g class="c" transform="translate(348 158)"><rect class="i" width="868" height="57"/><rect class="j" x="0.5" y="0.5" width="867" height="56"/></g><text class="g" transform="translate(371 196)"><tspan x="0" y="0">Badam muzykę</tspan></text><text class="h" transform="translate(710 196)"><tspan x="0" y="0">Album muzyczny</tspan></text><text class="g" transform="translate(1049 196)"><tspan x="0" y="0">Janowski</tspan></text></g></g></svg>