<svg xmlns="http://www.w3.org/2000/svg" xmlns:xlink="http://www.w3.org/1999/xlink" width="1280" height="800" viewBox="0 0 1280 800"><defs><style>.a{clip-path:url(#b);}.b,.d,.e,.h,.j,.k,.l{fill:#707070;}.b{font-size:20px;}.b,.h,.j,.k{font-family:Tahoma;}.c,.h,.j{text-decoration:underline;}.d,.e{font-size:48px;}.d{font-family:Wingdings3, "Wingdings 3";}.e,.l{font-family:Tahoma-Bold, Tahoma;font-weight:700;}.f,.o{fill:#fff;}.f,.g,.i{stroke:#707070;}.g{fill:#eee;}.h,.k{font-size:22px;}.i,.n{fill:none;}.j{font-size:24px;}.l{font-size:30px;}.m{stroke:none;}</style><clipPath id="b"><rect width="1280" height="800"/></clipPath></defs><g id="a" class="a"><rect class="o" width="1280" height="800"/><text class="b" transform="translate(612 449)"><tspan x="0" y="0">Nie masz jeszcze konta? </tspan><tspan class="c" y="0">Zarejestruj się</tspan></text><text class="d" transform="translate(326 103)"><tspan x="0" y="0">f</tspan></text><text class="e" transform="translate(548 106)"><tspan x="0" y="0">Resetowanie hasła</tspan></text><g class="f"><rect class="m" width="260" height="800"/><rect class="n" x="0.5" y="0.5" width="259" height="799"/></g><g transform="translate(0 157)"><g class="g" transform="translate(0 181)"><rect class="m" width="260" height="70"/><rect class="n" x="0.5" y="0.5" width="259" height="69"/></g><text class="h" transform="translate(30 226)"><tspan x="0" y="0">ALBUMY</tspan></text></g><g transform="translate(1 227)"><g class="g" transform="translate(0 181)"><rect class="m" width="260" height="70"/><rect class="n" x="0.5" y="0.5" width="259" height="69"/></g><text class="h" transform="translate(30 226)"><tspan x="0" y="0">WYKONAWCY</tspan></text></g><g transform="translate(0 297)"><g class="g" transform="translate(0 181)"><rect class="m" width="260" height="70"/><rect class="n" x="0.5" y="0.5" width="259" height="69"/></g><text class="h" transform="translate(30 226)"><tspan x="0" y="0">UTWORY</tspan></text></g><g transform="translate(0 365)"><g class="g" transform="translate(0 181)"><rect class="m" width="260" height="70"/><rect class="n" x="0.5" y="0.5" width="259" height="69"/></g><text class="h" transform="translate(30 226)"><tspan x="0" y="0">TWOJE PLAYLISTY</tspan></text></g><g transform="translate(6 7)"><g class="g" transform="translate(19 20)"><rect class="m" width="212" height="83"/><rect class="n" x="0.5" y="0.5" width="211" height="82"/></g><line class="i" x2="212.313" y2="82.113" transform="translate(19.5 20.5)"/><line class="i" x1="212.313" y2="82.113" transform="translate(19.5 20.5)"/></g><g transform="translate(0 549)"><g class="g" transform="translate(0 181)"><rect class="m" width="260" height="70"/><rect class="n" x="0.5" y="0.5" width="259" height="69"/></g><text class="j" transform="translate(30 226)"><tspan x="0" y="0">WYLOGUJ SIĘ</tspan></text></g><g transform="translate(0 435)"><g class="g" transform="translate(0 181)"><rect class="m" width="260" height="70"/><rect class="n" x="0.5" y="0.5" width="259" height="69"/></g><text class="h" transform="translate(30 226)"><tspan x="0" y="0">RECENZJE</tspan></text></g><g transform="translate(0 -27)"><g class="g" transform="translate(0 181)"><rect class="m" width="260" height="70"/><rect class="n" x="0.5" y="0.5" width="259" height="69"/></g><text class="h" transform="translate(30 226)"><tspan x="0" y="0">STRONA STARTOWA</tspan></text></g><g transform="translate(0 43)"><g class="g" transform="translate(0 181)"><rect class="m" width="260" height="70"/><rect class="n" x="0.5" y="0.5" width="259" height="69"/></g><text class="h" transform="translate(30 226)"><tspan x="0" y="0">WYSZUKAJ</tspan></text></g><g class="f" transform="translate(550 147)"><rect class="m" width="469" height="253" rx="52"/><rect class="n" x="0.5" y="0.5" width="468" height="252" rx="51.5"/></g><g transform="translate(621 173)"><g class="f"><rect class="m" width="342" height="59"/><rect class="n" x="0.5" y="0.5" width="341" height="58"/></g><text class="k" transform="translate(26 38)"><tspan x="0" y="0">Login</tspan></text></g><g transform="translate(621 251.194)"><g class="f" transform="translate(0 -0.194)"><rect class="m" width="342" height="59"/><rect class="n" x="0.5" y="0.5" width="341" height="58"/></g><text class="k" transform="translate(26 37.806)"><tspan x="0" y="0">Adres e-mail</tspan></text></g><g transform="translate(717 328.852)"><g class="f" transform="translate(0 0.148)"><rect class="m" width="250" height="55" rx="27.5"/><rect class="n" x="0.5" y="0.5" width="249" height="54" rx="27"/></g><text class="k" transform="translate(97 36.148)"><tspan x="0" y="0">Wyślij</tspan></text></g><g class="f"><rect class="m" width="260" height="800"/><rect class="n" x="0.5" y="0.5" width="259" height="799"/></g><line class="i" x2="260" y2="800" transform="translate(0.5 0.5)"/><line class="i" y1="800" x2="260" transform="translate(0.5 0.5)"/><text class="l" transform="translate(87.286 312.315) rotate(71)"><tspan x="0" y="0">LEWY PANEL</tspan></text></g></svg>