<svg xmlns="http://www.w3.org/2000/svg" xmlns:xlink="http://www.w3.org/1999/xlink" width="1280" height="800" viewBox="0 0 1280 800"><defs><style>.a{clip-path:url(#b);}.b,.e,.f,.g,.h,.i{fill:#707070;}.b,.f{font-size:48px;}.b{font-family:Wingdings3, "Wingdings 3";}.c,.m{fill:#fff;}.c,.d,.j{stroke:#707070;}.d,.l{fill:none;}.e{font-size:30px;}.e,.f,.h{font-family:Tahoma-Bold, Tahoma;font-weight:700;}.g,.i{font-size:22px;font-family:Tahoma;}.h{font-size:24px;}.i{text-decoration:underline;}.j{fill:#eee;}.k{stroke:none;}</style><clipPath id="b"><rect width="1280" height="800"/></clipPath></defs><g id="a" class="a"><rect class="m" width="1280" height="800"/><text class="b" transform="translate(276 60)"><tspan x="0" y="0">f</tspan></text><g class="c"><rect class="k" width="260" height="800"/><rect class="l" x="0.5" y="0.5" width="259" height="799"/></g><line class="d" x2="260" y2="800" transform="translate(0.5 0.5)"/><line class="d" y1="800" x2="260" transform="translate(0.5 0.5)"/><text class="e" transform="translate(87.286 312.315) rotate(71)"><tspan x="0" y="0">LEWY PANEL</tspan></text><text class="f" transform="translate(543 84)"><tspan x="0" y="0">Tytuł albumu</tspan></text><text class="g" transform="translate(348 241)"><tspan x="0" y="0">Numer</tspan><tspan x="0" y="27">utworu</tspan></text><text class="g" transform="translate(480 241)"><tspan x="0" y="0">Tytuł</tspan></text><text class="g" transform="translate(1134 241)"><tspan x="0" y="0">Długość</tspan></text><g transform="translate(7 -27)"><g class="c" transform="translate(341 319)"><rect class="k" width="863" height="51"/><rect class="l" x="0.5" y="0.5" width="862" height="50"/></g><text class="g" transform="translate(470 353)"><tspan x="0" y="0">Tytuł utworu</tspan></text><text class="g" transform="translate(1138 353)"><tspan x="0" y="0">3:33</tspan></text><text class="g" transform="translate(359 353)"><tspan x="0" y="0">#...</tspan></text><text class="g" transform="translate(719 353)"><tspan x="0" y="0">Adam, Irek, Jarek</tspan></text></g><text class="g" transform="translate(543 134)"><tspan x="0" y="0">Nazwa zespołu/wykonawcy</tspan></text><text class="g" transform="translate(731 241)"><tspan x="0" y="0">Wykonawcy</tspan><tspan x="0" y="27">(lista wykonawców, wokalistów itd.)</tspan></text><g transform="translate(7 41)"><g class="c" transform="translate(341 319)"><rect class="k" width="863" height="51"/><rect class="l" x="0.5" y="0.5" width="862" height="50"/></g><text class="g" transform="translate(470 353)"><tspan x="0" y="0">Tytuł utworu</tspan></text><text class="g" transform="translate(1138 353)"><tspan x="0" y="0">3:33</tspan></text><text class="g" transform="translate(359 353)"><tspan x="0" y="0">#...</tspan></text><text class="g" transform="translate(719 353)"><tspan x="0" y="0">Adam, Irek, Jarek</tspan></text></g><g transform="translate(7 109)"><g class="c" transform="translate(341 319)"><rect class="k" width="863" height="51"/><rect class="l" x="0.5" y="0.5" width="862" height="50"/></g><text class="g" transform="translate(470 353)"><tspan x="0" y="0">Tytuł utworu</tspan></text><text class="g" transform="translate(1138 353)"><tspan x="0" y="0">3:33</tspan></text><text class="g" transform="translate(359 353)"><tspan x="0" y="0">#...</tspan></text><text class="g" transform="translate(719 353)"><tspan x="0" y="0">Adam, Irek, Jarek</tspan></text></g><g transform="translate(6 177)"><g class="c" transform="translate(341 319)"><rect class="k" width="863" height="51"/><rect class="l" x="0.5" y="0.5" width="862" height="50"/></g><text class="g" transform="translate(470 353)"><tspan x="0" y="0">Tytuł utworu</tspan></text><text class="g" transform="translate(1138 353)"><tspan x="0" y="0">3:33</tspan></text><text class="g" transform="translate(359 353)"><tspan x="0" y="0">#...</tspan></text><text class="g" transform="translate(719 353)"><tspan x="0" y="0">Adam, Irek, Jarek</tspan></text></g><text class="h" transform="translate(347 595)"><tspan x="0" y="0">Recenzje</tspan></text><g transform="translate(6 298)"><text class="i" transform="translate(469 464)"><tspan x="0" y="0">Czytaj dalej...</tspan></text><g class="c" transform="translate(341 319)"><rect class="k" width="274" height="160"/><rect class="l" x="0.5" y="0.5" width="273" height="159"/></g><text class="g" transform="translate(357 353)"><tspan x="0" y="0">Uczta dla uszu!</tspan></text><text class="g" transform="translate(357 394)"><tspan x="0" y="0">Jest to prawdopodobnie</tspan><tspan x="0" y="27">najlepszy album...</tspan></text></g><g class="j" transform="translate(348 38)"><rect class="k" width="150" height="150"/><rect class="l" x="0.5" y="0.5" width="149" height="149"/></g><text class="g" transform="translate(426.536 108.464) rotate(45)"><tspan x="-39.386" y="0">Okładka</tspan><tspan x="-35.874" y="27">albumu</tspan></text><text class="i" transform="translate(470 764)"><tspan x="0" y="0">Czytaj dalej...</tspan></text><text class="i" transform="translate(1031 595)"><tspan x="0" y="0">Opublikuj recenzję</tspan></text><g transform="translate(596 298)"><text class="i" transform="translate(469 464)"><tspan x="0" y="0">Czytaj dalej...</tspan></text><g class="c" transform="translate(341 319)"><rect class="k" width="274" height="160"/><rect class="l" x="0.5" y="0.5" width="273" height="159"/></g><text class="g" transform="translate(357 353)"><tspan x="0" y="0">Rozczarowanie</tspan></text><text class="g" transform="translate(357 394)"><tspan x="0" y="0">Po 10 latach oczekiwań</tspan><tspan x="0" y="27">album zdecydowanie...</tspan></text></g><text class="i" transform="translate(1060 764)"><tspan x="0" y="0">Czytaj dalej...</tspan></text><g transform="translate(302 298)"><text class="i" transform="translate(469 464)"><tspan x="0" y="0">Czytaj dalej...</tspan></text><g class="c" transform="translate(341 319)"><rect class="k" width="274" height="160"/><rect class="l" x="0.5" y="0.5" width="273" height="159"/></g><text class="g" transform="translate(357 353)"><tspan x="0" y="0">Świetny</tspan></text><text class="g" transform="translate(357 394)"><tspan x="0" y="0">Moje ulubione piosenki</tspan><tspan x="0" y="27">tego zespołu na...</tspan></text></g><text class="i" transform="translate(766 764)"><tspan x="0" y="0">Czytaj dalej...</tspan></text></g></svg>