<svg xmlns="http://www.w3.org/2000/svg" xmlns:xlink="http://www.w3.org/1999/xlink" width="1280" height="800" viewBox="0 0 1280 800"><defs><style>.a{clip-path:url(#b);}.b,.d,.e,.h,.j,.k,.l,.m{fill:#707070;}.b,.m{font-size:20px;}.b,.h,.j,.k,.m{font-family:Tahoma;}.c,.h,.j,.m{text-decoration:underline;}.d,.e{font-size:48px;}.d{font-family:Wingdings3, "Wingdings 3";}.e,.l{font-family:Tahoma-Bold, Tahoma;font-weight:700;}.f,.p{fill:#fff;}.f,.g,.i{stroke:#707070;}.g{fill:#eee;}.h,.k{font-size:22px;}.i,.o{fill:none;}.j{font-size:24px;}.l{font-size:30px;}.n{stroke:none;}</style><clipPath id="b"><rect width="1280" height="800"/></clipPath></defs><g id="a" class="a"><rect class="p" width="1280" height="800"/><text class="b" transform="translate(654 742)"><tspan x="0" y="0">Masz już konto? </tspan><tspan class="c" y="0">Zaloguj się</tspan></text><text class="d" transform="translate(326 103)"><tspan x="0" y="0">f</tspan></text><text class="e" transform="translate(626 106)"><tspan x="0" y="0">Utwórz konto</tspan></text><g class="f"><rect class="n" width="260" height="800"/><rect class="o" x="0.5" y="0.5" width="259" height="799"/></g><g transform="translate(0 157)"><g class="g" transform="translate(0 181)"><rect class="n" width="260" height="70"/><rect class="o" x="0.5" y="0.5" width="259" height="69"/></g><text class="h" transform="translate(30 226)"><tspan x="0" y="0">ALBUMY</tspan></text></g><g transform="translate(1 227)"><g class="g" transform="translate(0 181)"><rect class="n" width="260" height="70"/><rect class="o" x="0.5" y="0.5" width="259" height="69"/></g><text class="h" transform="translate(30 226)"><tspan x="0" y="0">WYKONAWCY</tspan></text></g><g transform="translate(0 297)"><g class="g" transform="translate(0 181)"><rect class="n" width="260" height="70"/><rect class="o" x="0.5" y="0.5" width="259" height="69"/></g><text class="h" transform="translate(30 226)"><tspan x="0" y="0">UTWORY</tspan></text></g><g transform="translate(0 365)"><g class="g" transform="translate(0 181)"><rect class="n" width="260" height="70"/><rect class="o" x="0.5" y="0.5" width="259" height="69"/></g><text class="h" transform="translate(30 226)"><tspan x="0" y="0">TWOJE PLAYLISTY</tspan></text></g><g transform="translate(6 7)"><g class="g" transform="translate(19 20)"><rect class="n" width="212" height="83"/><rect class="o" x="0.5" y="0.5" width="211" height="82"/></g><line class="i" x2="212.313" y2="82.113" transform="translate(19.5 20.5)"/><line class="i" x1="212.313" y2="82.113" transform="translate(19.5 20.5)"/></g><g transform="translate(0 549)"><g class="g" transform="translate(0 181)"><rect class="n" width="260" height="70"/><rect class="o" x="0.5" y="0.5" width="259" height="69"/></g><text class="j" transform="translate(30 226)"><tspan x="0" y="0">WYLOGUJ SIĘ</tspan></text></g><g transform="translate(0 435)"><g class="g" transform="translate(0 181)"><rect class="n" width="260" height="70"/><rect class="o" x="0.5" y="0.5" width="259" height="69"/></g><text class="h" transform="translate(30 226)"><tspan x="0" y="0">RECENZJE</tspan></text></g><g transform="translate(0 -27)"><g class="g" transform="translate(0 181)"><rect class="n" width="260" height="70"/><rect class="o" x="0.5" y="0.5" width="259" height="69"/></g><text class="h" transform="translate(30 226)"><tspan x="0" y="0">STRONA STARTOWA</tspan></text></g><g transform="translate(0 43)"><g class="g" transform="translate(0 181)"><rect class="n" width="260" height="70"/><rect class="o" x="0.5" y="0.5" width="259" height="69"/></g><text class="h" transform="translate(30 226)"><tspan x="0" y="0">WYSZUKAJ</tspan></text></g><g class="f" transform="translate(550 147)"><rect class="n" width="469" height="567" rx="52"/><rect class="o" x="0.5" y="0.5" width="468" height="566" rx="51.5"/></g><g transform="translate(621 173)"><g class="f"><rect class="n" width="342" height="59"/><rect class="o" x="0.5" y="0.5" width="341" height="58"/></g><text class="k" transform="translate(26 38)"><tspan x="0" y="0">Login</tspan></text></g><g transform="translate(621 247.128)"><g class="f" transform="translate(0 -0.128)"><rect class="n" width="342" height="59"/><rect class="o" x="0.5" y="0.5" width="341" height="58"/></g><text class="k" transform="translate(26 37.872)"><tspan x="0" y="0">Adres e-mail</tspan></text><g transform="translate(0 74)"><g class="f" transform="translate(0 -0.128)"><rect class="n" width="342" height="59"/><rect class="o" x="0.5" y="0.5" width="341" height="58"/></g><text class="k" transform="translate(26 37.872)"><tspan x="0" y="0">Hasło</tspan></text></g></g><g transform="translate(622 395.194)"><g class="f" transform="translate(0 -0.194)"><rect class="n" width="342" height="59"/><rect class="o" x="0.5" y="0.5" width="341" height="58"/></g><text class="k" transform="translate(26 37.806)"><tspan x="0" y="0">Powtórz hasło</tspan></text></g><g transform="translate(624 469.035)"><g class="g" transform="translate(0 -0.035)"><rect class="n" width="341" height="83"/><rect class="o" x="0.5" y="0.5" width="340" height="82"/></g><line class="i" x2="341" y2="82.113" transform="translate(0.5 0.5)"/><line class="i" x1="341" y2="82.113" transform="translate(0.5 0.5)"/></g><text class="k" transform="translate(748 541)"><tspan x="0" y="0">CAPTCHA</tspan></text><g transform="translate(716 635.852)"><g class="f" transform="translate(0 0.148)"><rect class="n" width="250" height="55" rx="27.5"/><rect class="o" x="0.5" y="0.5" width="249" height="54" rx="27"/></g><text class="k" transform="translate(72 36.148)"><tspan x="0" y="0">Zarejestruj</tspan></text></g><g class="f" transform="translate(626 577)"><rect class="n" width="28" height="28"/><rect class="o" x="0.5" y="0.5" width="27" height="27"/></g><text class="k" transform="translate(670 586)"><tspan x="0" y="0">Akceptuję </tspan><tspan class="c" y="0">regulamin</tspan><tspan y="0" xml:space="preserve"> korzystania</tspan><tspan x="0" y="27">z serwisu</tspan></text><g class="f"><rect class="n" width="260" height="800"/><rect class="o" x="0.5" y="0.5" width="259" height="799"/></g><line class="i" x2="260" y2="800" transform="translate(0.5 0.5)"/><line class="i" y1="800" x2="260" transform="translate(0.5 0.5)"/><text class="l" transform="translate(87.286 312.315) rotate(71)"><tspan x="0" y="0">LEWY PANEL</tspan></text><text class="m" transform="translate(775 766)"><tspan x="-92.715" y="0">Nie pamiętasz hasła?</tspan></text></g></svg>