<svg xmlns="http://www.w3.org/2000/svg" xmlns:xlink="http://www.w3.org/1999/xlink" width="1280" height="800" viewBox="0 0 1280 800"><defs><style>.a{clip-path:url(#b);}.b,.d,.f,.g{fill:#707070;}.b,.g{font-size:48px;}.b{font-family:Wingdings3, "Wingdings 3";}.c,.j{fill:#fff;}.c,.e{stroke:#707070;}.d{font-size:22px;font-family:Tahoma;}.e,.i{fill:none;}.f{font-size:30px;}.f,.g{font-family:Tahoma-Bold, Tahoma;font-weight:700;}.h{stroke:none;}</style><clipPath id="b"><rect width="1280" height="800"/></clipPath></defs><g id="a" class="a"><rect class="j" width="1280" height="800"/><text class="b" transform="translate(299 124)"><tspan x="0" y="0">f</tspan></text><g class="c" transform="translate(299 161)"><rect class="h" width="935" height="540" rx="20"/><rect class="i" x="0.5" y="0.5" width="934" height="539" rx="19.5"/></g><g transform="translate(330 236)"><g class="c" transform="translate(12 16)"><rect class="h" width="863" height="51"/><rect class="i" x="0.5" y="0.5" width="862" height="50"/></g><text class="d" transform="translate(30 50)"><tspan x="0" y="0">Adam Nowak</tspan></text></g><g class="c"><rect class="h" width="260" height="800"/><rect class="i" x="0.5" y="0.5" width="259" height="799"/></g><line class="e" x2="260" y2="800" transform="translate(0.5 0.5)"/><line class="e" y1="800" x2="260" transform="translate(0.5 0.5)"/><text class="f" transform="translate(87.286 312.315) rotate(71)"><tspan x="0" y="0">LEWY PANEL</tspan></text><g transform="translate(434.388 158)"><g class="c" transform="translate(528.612 30)"><rect class="h" width="242" height="43"/><rect class="i" x="0.5" y="0.5" width="241" height="42"/></g><text class="d" transform="translate(589.612 60)"><tspan x="0" y="0">Filtruj listę...</tspan></text></g><text class="g" transform="translate(487 229)"><tspan x="-145.313" y="0">Wykonawcy</tspan></text><g transform="translate(330 308)"><g class="c" transform="translate(12 16)"><rect class="h" width="863" height="51"/><rect class="i" x="0.5" y="0.5" width="862" height="50"/></g><text class="d" transform="translate(30 50)"><tspan x="0" y="0">Adam Nowak</tspan></text></g><g transform="translate(330 380)"><g class="c" transform="translate(12 16)"><rect class="h" width="863" height="51"/><rect class="i" x="0.5" y="0.5" width="862" height="50"/></g><text class="d" transform="translate(30 50)"><tspan x="0" y="0">Adam Nowak</tspan></text></g><g transform="translate(330 452)"><g class="c" transform="translate(12 16)"><rect class="h" width="863" height="51"/><rect class="i" x="0.5" y="0.5" width="862" height="50"/></g><text class="d" transform="translate(30 50)"><tspan x="0" y="0">Adam Nowak</tspan></text></g><g transform="translate(330 524)"><g class="c" transform="translate(12 16)"><rect class="h" width="863" height="51"/><rect class="i" x="0.5" y="0.5" width="862" height="50"/></g><text class="d" transform="translate(30 50)"><tspan x="0" y="0">Adam Nowak</tspan></text></g><g transform="translate(330 596)"><g class="c" transform="translate(12 16)"><rect class="h" width="863" height="51"/><rect class="i" x="0.5" y="0.5" width="862" height="50"/></g><text class="d" transform="translate(30 50)"><tspan x="0" y="0">Adam Nowak</tspan></text></g><g transform="translate(178.388 158)"><g class="c" transform="translate(528.612 30)"><rect class="h" width="242" height="43"/><rect class="i" x="0.5" y="0.5" width="241" height="42"/></g><text class="d" transform="translate(595.612 60)"><tspan x="0" y="0">Sortowanie</tspan></text></g></g></svg>