<svg xmlns="http://www.w3.org/2000/svg" xmlns:xlink="http://www.w3.org/1999/xlink" width="1280" height="800" viewBox="0 0 1280 800"><defs><clipPath id="b"><rect width="1280" height="800"/></clipPath></defs><g id="a" clip-path="url(#b)"><rect width="1280" height="800" fill="#fff"/><g fill="#fff" stroke="#707070" stroke-width="1"><rect width="260" height="800" stroke="none"/><rect x="0.5" y="0.5" width="259" height="799" fill="none"/></g><g transform="translate(0 157)"><g transform="translate(0 181)" fill="#eee" stroke="#707070" stroke-width="1"><rect width="260" height="70" stroke="none"/><rect x="0.5" y="0.5" width="259" height="69" fill="none"/></g><text transform="translate(30 226)" fill="#707070" font-size="22" font-family="Tahoma" text-decoration="underline"><tspan x="0" y="0">ALBUMY</tspan></text></g><g transform="translate(1 227)"><g transform="translate(0 181)" fill="#eee" stroke="#707070" stroke-width="1"><rect width="259" height="70" stroke="none"/><rect x="0.5" y="0.5" width="258" height="69" fill="none"/></g><text transform="translate(30 226)" fill="#707070" font-size="22" font-family="Tahoma" text-decoration="underline"><tspan x="0" y="0">WYKONAWCY</tspan></text></g><g transform="translate(0 297)"><g transform="translate(0 181)" fill="#eee" stroke="#707070" stroke-width="1"><rect width="260" height="70" stroke="none"/><rect x="0.5" y="0.5" width="259" height="69" fill="none"/></g><text transform="translate(30 226)" fill="#707070" font-size="22" font-family="Tahoma" text-decoration="underline"><tspan x="0" y="0">UTWORY</tspan></text></g><g transform="translate(0 365)"><g transform="translate(0 181)" fill="#eee" stroke="#707070" stroke-width="1"><rect width="260" height="70" stroke="none"/><rect x="0.5" y="0.5" width="259" height="69" fill="none"/></g><text transform="translate(30 226)" fill="#707070" font-size="22" font-family="Tahoma" text-decoration="underline"><tspan x="0" y="0">TWOJE PLAYLISTY</tspan></text></g><g transform="translate(6 7)"><g transform="translate(19 20)" fill="#eee" stroke="#707070" stroke-width="1"><rect width="212" height="83" stroke="none"/><rect x="0.5" y="0.5" width="211" height="82" fill="none"/></g><line x2="212.313" y2="82.113" transform="translate(19.5 20.5)" fill="none" stroke="#707070" stroke-width="1"/><line x1="212.313" y2="82.113" transform="translate(19.5 20.5)" fill="none" stroke="#707070" stroke-width="1"/></g><g transform="translate(0 549)"><text transform="translate(57 228)" fill="#707070" font-size="24" font-family="Tahoma" text-decoration="underline"><tspan x="0" y="0">WYLOGUJ SIĘ</tspan></text></g><g transform="translate(0 435)"><g transform="translate(0 181)" fill="#eee" stroke="#707070" stroke-width="1"><rect width="260" height="70" stroke="none"/><rect x="0.5" y="0.5" width="259" height="69" fill="none"/></g><text transform="translate(30 226)" fill="#707070" font-size="22" font-family="Tahoma" text-decoration="underline"><tspan x="0" y="0">RECENZJE</tspan></text></g><g transform="translate(0 -27)"><g transform="translate(0 181)" fill="#eee" stroke="#707070" stroke-width="1"><rect width="260" height="70" stroke="none"/><rect x="0.5" y="0.5" width="259" height="69" fill="none"/></g><text transform="translate(30 226)" fill="#707070" font-size="22" font-family="Tahoma" text-decoration="underline"><tspan x="0" y="0">STRONA STARTOWA</tspan></text></g><g transform="translate(0 43)"><g transform="translate(0 181)" fill="#eee" stroke="#707070" stroke-width="1"><rect width="260" height="70" stroke="none"/><rect x="0.5" y="0.5" width="259" height="69" fill="none"/></g><text transform="translate(30 226)" fill="#707070" font-size="22" font-family="Tahoma" text-decoration="underline"><tspan x="0" y="0">WYSZUKAJ</tspan></text></g><g transform="translate(295 33)" fill="#fff" stroke="#707070" stroke-width="1"><rect width="941" height="737" stroke="none"/><rect x="0.5" y="0.5" width="940" height="736" fill="none"/></g><text transform="matrix(0.783, 0.623, -0.623, 0.783, 588.288, 289.449)" fill="#707070" font-size="60" font-family="Tahoma"><tspan x="0" y="0">TREŚĆ STRONY</tspan></text><line x2="941" y2="737" transform="translate(295.5 33.5)" fill="none" stroke="#707070" stroke-width="1"/><line y1="737" x2="941" transform="translate(295.5 33.5)" fill="none" stroke="#707070" stroke-width="1"/></g></svg>