<svg xmlns="http://www.w3.org/2000/svg" xmlns:xlink="http://www.w3.org/1999/xlink" width="1280" height="800" viewBox="0 0 1280 800"><defs><clipPath id="b"><rect width="1280" height="800"/></clipPath></defs><g id="a" clip-path="url(#b)"><rect width="1280" height="800" fill="#fff"/><text transform="translate(967 764)" fill="#707070" font-size="20" font-family="Tahoma" text-decoration="underline"><tspan x="0" y="0">Regulamin i polityka prywatności</tspan></text><text transform="translate(1006 42)" fill="#707070" font-size="20" font-family="Tahoma"><tspan x="0" y="0" text-decoration="underline">Zaloguj się</tspan><tspan y="0" xml:space="preserve"> lub </tspan><tspan y="0" text-decoration="underline">utwórz konto</tspan></text><g transform="translate(18 2)"><g transform="translate(288 20)" fill="#fff" stroke="#707070" stroke-width="1"><rect width="247" height="45" stroke="none"/><rect x="0.5" y="0.5" width="246" height="44" fill="none"/></g><text transform="translate(343 50)" fill="#707070" font-size="20" font-family="Tahoma"><tspan x="0" y="0">Wyszukiwarka</tspan></text></g><g fill="#fff" stroke="#707070" stroke-width="1"><rect width="260" height="800" stroke="none"/><rect x="0.5" y="0.5" width="259" height="799" fill="none"/></g><line x2="260" y2="800" transform="translate(0.5 0.5)" fill="none" stroke="#707070" stroke-width="1"/><line y1="800" x2="260" transform="translate(0.5 0.5)" fill="none" stroke="#707070" stroke-width="1"/><text transform="translate(306 197)" fill="#707070" font-size="22" font-family="Tahoma-Bold, Tahoma" font-weight="700"><tspan x="0" y="0">Witaj w internetowym katalogu muzycznym!</tspan><tspan font-size="56"><tspan x="0" y="61">Tysiące utworów</tspan><tspan x="0" y="129">w jednym miejscu</tspan></tspan></text><text transform="translate(306 422)" fill="#707070" font-size="22" font-family="Tahoma"><tspan x="0" y="0" text-decoration="underline">Utwórz konto</tspan><tspan y="0" xml:space="preserve"> aby tworzyć własne playlisty</tspan><tspan x="0" y="27">lub pisać recenzje albumów</tspan></text><text transform="translate(306 736)" fill="#707070" font-size="22" font-family="Tahoma"><tspan x="0" y="0" text-decoration="underline">Zaloguj się</tspan><tspan y="0">, jeśli masz już konto</tspan></text><line x2="282" transform="translate(306.5 686.5)" fill="none" stroke="#707070" stroke-width="1"/><text transform="translate(306 763)" fill="#707070" font-size="22" font-family="Tahoma" text-decoration="underline"><tspan x="0" y="0">Zapomniałeś hasła?</tspan></text><text transform="translate(87.286 312.315) rotate(71)" fill="#707070" font-size="30" font-family="Tahoma-Bold, Tahoma" font-weight="700"><tspan x="0" y="0">LEWY PANEL</tspan></text></g></svg>