<svg xmlns="http://www.w3.org/2000/svg" xmlns:xlink="http://www.w3.org/1999/xlink" width="1280" height="800" viewBox="0 0 1280 800"><defs><style>.a{clip-path:url(#b);}.b,.e,.f,.g,.h,.i{fill:#707070;}.b,.f{font-size:48px;}.b{font-family:Wingdings3, "Wingdings 3";}.c,.m{fill:#fff;}.c,.d,.j{stroke:#707070;}.d,.l{fill:none;}.e{font-size:30px;}.e,.f,.h{font-family:Tahoma-Bold, Tahoma;font-weight:700;}.g,.h{font-size:22px;}.g,.i{font-family:Tahoma;}.i{font-size:26px;}.j{fill:#eee;}.k{stroke:none;}</style><clipPath id="b"><rect width="1280" height="800"/></clipPath></defs><g id="a" class="a"><rect class="m" width="1280" height="800"/><text class="b" transform="translate(276 51)"><tspan x="0" y="0">f</tspan></text><g class="c"><rect class="k" width="260" height="800"/><rect class="l" x="0.5" y="0.5" width="259" height="799"/></g><line class="d" x2="260" y2="800" transform="translate(0.5 0.5)"/><line class="d" y1="800" x2="260" transform="translate(0.5 0.5)"/><text class="e" transform="translate(87.286 312.315) rotate(71)"><tspan x="0" y="0">LEWY PANEL</tspan></text><g transform="translate(15 37)"><text class="f" transform="translate(335 100)"><tspan x="0" y="0">Adam Nowak</tspan></text><text class="g" transform="translate(335 47)"><tspan x="0" y="0">Wykonawca</tspan></text></g><g transform="translate(15 213)"><text class="h" transform="translate(335 198)"><tspan x="0" y="0">Albumy, single i minialbumy</tspan></text><g transform="translate(-6 -99)"><g class="c" transform="translate(341 319)"><rect class="k" width="404" height="144"/><rect class="l" x="0.5" y="0.5" width="403" height="143"/></g><text class="i" transform="translate(476 392)"><tspan x="0" y="0">Nazwa albumu</tspan></text><text class="g" transform="translate(476 363)"><tspan x="0" y="0">2020</tspan></text><g class="j" transform="translate(362 341)"><rect class="k" width="100" height="100"/><rect class="l" x="0.5" y="0.5" width="99" height="99"/></g></g><g transform="translate(413 -99)"><g class="c" transform="translate(341 319)"><rect class="k" width="404" height="144"/><rect class="l" x="0.5" y="0.5" width="403" height="143"/></g><text class="i" transform="translate(476 392)"><tspan x="0" y="0">Nazwa albumu</tspan></text><text class="g" transform="translate(476 363)"><tspan x="0" y="0">2020</tspan></text><g class="j" transform="translate(362 341)"><rect class="k" width="100" height="100"/><rect class="l" x="0.5" y="0.5" width="99" height="99"/></g></g><g transform="translate(-6 62)"><g class="c" transform="translate(341 319)"><rect class="k" width="404" height="144"/><rect class="l" x="0.5" y="0.5" width="403" height="143"/></g><text class="i" transform="translate(476 392)"><tspan x="0" y="0">Nazwa albumu</tspan></text><text class="g" transform="translate(476 363)"><tspan x="0" y="0">2020</tspan></text><g class="j" transform="translate(362 341)"><rect class="k" width="100" height="100"/><rect class="l" x="0.5" y="0.5" width="99" height="99"/></g></g><g transform="translate(413 62)"><g class="c" transform="translate(341 319)"><rect class="k" width="404" height="144"/><rect class="l" x="0.5" y="0.5" width="403" height="143"/></g><text class="i" transform="translate(476 392)"><tspan x="0" y="0">Nazwa albumu</tspan></text><text class="g" transform="translate(476 363)"><tspan x="0" y="0">2020</tspan></text><g class="j" transform="translate(362 341)"><rect class="k" width="100" height="100"/><rect class="l" x="0.5" y="0.5" width="99" height="99"/></g></g></g><g class="j" transform="translate(350 172)"><rect class="k" width="396" height="188"/><rect class="l" x="0.5" y="0.5" width="395" height="187"/></g><text class="g" transform="translate(386.978 246.827) rotate(10)"><tspan x="0" y="0">Informacje o zespole/wykonawcy</tspan></text><g transform="translate(16 -13)"><text class="h" transform="translate(753 207)"><tspan x="0" y="0">Najnowsze wydanie</tspan></text><g transform="translate(412 -90)"><g class="c" transform="translate(341 319)"><rect class="k" width="404" height="144"/><rect class="l" x="0.5" y="0.5" width="403" height="143"/></g><text class="i" transform="translate(476 392)"><tspan x="0" y="0">Nazwa albumu</tspan></text><text class="g" transform="translate(476 363)"><tspan x="0" y="0">2020</tspan></text><g class="j" transform="translate(362 341)"><rect class="k" width="100" height="100"/><rect class="l" x="0.5" y="0.5" width="99" height="99"/></g></g></g></g></svg>