<svg xmlns="http://www.w3.org/2000/svg" xmlns:xlink="http://www.w3.org/1999/xlink" width="1280" height="800" viewBox="0 0 1280 800"><defs><style>.a{clip-path:url(#b);}.b,.e,.f,.g{fill:#707070;}.b,.g{font-size:48px;}.b{font-family:Wingdings3, "Wingdings 3";}.c,.j{fill:#fff;}.c,.d{stroke:#707070;}.d,.i{fill:none;}.e{font-size:30px;}.e,.g{font-family:Tahoma-Bold, Tahoma;font-weight:700;}.f{font-size:22px;font-family:Tahoma;}.h{stroke:none;}</style><clipPath id="b"><rect width="1280" height="800"/></clipPath></defs><g id="a" class="a"><rect class="j" width="1280" height="800"/><text class="b" transform="translate(299 99)"><tspan x="0" y="0">f</tspan></text><g class="c" transform="translate(299 134)"><rect class="h" width="935" height="493" rx="20"/><rect class="i" x="0.5" y="0.5" width="934" height="492" rx="19.5"/></g><g class="c"><rect class="h" width="260" height="800"/><rect class="i" x="0.5" y="0.5" width="259" height="799"/></g><line class="d" x2="260" y2="800" transform="translate(0.5 0.5)"/><line class="d" y1="800" x2="260" transform="translate(0.5 0.5)"/><text class="e" transform="translate(87.286 312.315) rotate(71)"><tspan x="0" y="0">LEWY PANEL</tspan></text><g transform="translate(434.388 158)"><g class="c" transform="translate(528.612 30)"><rect class="h" width="242" height="43"/><rect class="i" x="0.5" y="0.5" width="241" height="42"/></g><text class="f" transform="translate(589.612 60)"><tspan x="0" y="0">Filtruj listę...</tspan></text></g><text class="g" transform="translate(557 229)"><tspan x="-214.699" y="0">Utwory muzyczne</tspan></text><text class="f" transform="translate(342 286)"><tspan x="0" y="0">Tytuł</tspan></text><text class="f" transform="translate(582 286)"><tspan x="0" y="0">Wykonawca</tspan></text><text class="f" transform="translate(823 286)"><tspan x="0" y="0">Album</tspan></text><g transform="translate(329 303)"><g class="c" transform="translate(12 16)"><rect class="h" width="863" height="51"/><rect class="i" x="0.5" y="0.5" width="862" height="50"/></g><text class="f" transform="translate(30 50)"><tspan x="0" y="0">Krótka piosenka</tspan></text></g><text class="f" transform="translate(583 353)"><tspan x="0" y="0">Adam Nowak</tspan></text><text class="f" transform="translate(823 353)"><tspan x="0" y="0">Akustyczne przeboje</tspan></text><g transform="translate(0 70)"><g transform="translate(329 303)"><g class="c" transform="translate(12 16)"><rect class="h" width="863" height="51"/><rect class="i" x="0.5" y="0.5" width="862" height="50"/></g><text class="f" transform="translate(30 50)"><tspan x="0" y="0">Dłuższa pieśń</tspan></text></g><text class="f" transform="translate(583 353)"><tspan x="0" y="0">Adam Nowak</tspan></text><text class="f" transform="translate(823 353)"><tspan x="0" y="0">Akustyczne przeboje</tspan></text></g><g transform="translate(1 140)"><g transform="translate(329 303)"><g class="c" transform="translate(12 16)"><rect class="h" width="863" height="51"/><rect class="i" x="0.5" y="0.5" width="862" height="50"/></g><text class="f" transform="translate(30 50)"><tspan x="0" y="0">Ballada</tspan></text></g><text class="f" transform="translate(583 353)"><tspan x="0" y="0">Adam Nowak</tspan></text><text class="f" transform="translate(823 353)"><tspan x="0" y="0">Akustyczne przeboje</tspan></text></g><g transform="translate(1 210)"><g transform="translate(329 303)"><g class="c" transform="translate(12 16)"><rect class="h" width="863" height="51"/><rect class="i" x="0.5" y="0.5" width="862" height="50"/></g><text class="f" transform="translate(30 50)"><tspan x="0" y="0">Melodyjka</tspan></text></g><text class="f" transform="translate(583 353)"><tspan x="0" y="0">Adam Nowak</tspan></text><text class="f" transform="translate(823 353)"><tspan x="0" y="0">Akustyczne przeboje</tspan></text></g></g></svg>